<svg width="160" height="126" viewBox="0 0 160 126" fill="none" xmlns="http://www.w3.org/2000/svg">
  <defs>
    <linearGradient id="shieldMain" x1="49" y1="18" x2="108" y2="106" gradientUnits="userSpaceOnUse">
      <stop stop-color="#3730A3"/>
      <stop offset="1" stop-color="#24185F"/>
    </linearGradient>
    <linearGradient id="shieldGlass" x1="22" y1="18" x2="132" y2="96" gradientUnits="userSpaceOnUse">
      <stop stop-color="#FFFFFF" stop-opacity="0.94"/>
      <stop offset="1" stop-color="#DDD6FE" stop-opacity="0.26"/>
    </linearGradient>
  </defs>
  <circle cx="28" cy="86" r="24" fill="#FDBA9B" fill-opacity="0.22"/>
  <circle cx="124" cy="24" r="20" fill="#DDD6FE" fill-opacity="0.48"/>
  <rect x="94" y="70" width="36" height="24" rx="12" fill="url(#shieldGlass)" stroke="#FFFFFF" stroke-opacity="0.48"/>
  <path d="M106 82H118" stroke="#3730A3" stroke-width="2.4" stroke-linecap="round"/>
  <path d="M80 16C90 24 102 28 116 30V58C116 80 102 97 80 108C58 97 44 80 44 58V30C58 28 70 24 80 16Z" fill="url(#shieldMain)"/>
  <path d="M80 24C88 30 97 33 108 35V57C108 74 98 87 80 97C62 87 52 74 52 57V35C63 33 72 30 80 24Z" fill="#FFFFFF" fill-opacity="0.12"/>
  <path d="M66 59L76 69L96 47" stroke="#FFFFFF" stroke-width="5" stroke-linecap="round" stroke-linejoin="round"/>
  <circle cx="46" cy="38" r="6" fill="#2FBF8F"/>
  <circle cx="118" cy="52" r="5" fill="#F59E0B"/>
</svg>